<svg width="66" height="66" viewBox="0 0 66 66" fill="none" xmlns="http://www.w3.org/2000/svg">
<path fill-rule="evenodd" clip-rule="evenodd" d="M1.00007e-05 32.5594C1.00007e-05 14.5774 14.5773 3.0002e-05 32.5594 3.0002e-05C50.5414 3.0002e-05 65.1188 14.5774 65.1188 32.5594C65.1188 50.5415 50.5414 65.1188 32.5594 65.1188C14.5773 65.1188 1.00007e-05 50.5415 1.00007e-05 32.5594Z" fill="#FF9BCD" fill-opacity="0.36"/>
<path fill-rule="evenodd" clip-rule="evenodd" d="M44.2553 23.1833H21.069C20.5049 23.1833 20.0461 22.7244 20.0461 22.1603C20.0461 21.5965 20.5049 21.1377 21.069 21.1377H44.2553C44.8191 21.1377 45.2782 21.5965 45.2782 22.1603C45.2782 22.7244 44.8191 23.1833 44.2553 23.1833ZM31.6391 33.4127H33.685C35.1892 33.4127 36.4129 34.6364 36.4129 36.1403C36.4129 37.6446 35.1892 38.8682 33.685 38.8682V40.573C33.685 41.1379 33.2269 41.5959 32.662 41.5959C32.0971 41.5959 31.6391 41.1379 31.6391 40.573V38.8682H29.9344C29.3695 38.8682 28.9114 38.4102 28.9114 37.8453C28.9114 37.2804 29.3695 36.8224 29.9344 36.8224H33.685C34.061 36.8224 34.367 36.5164 34.367 36.1403C34.367 35.7643 34.061 35.4583 33.685 35.4583H31.6391C30.1351 35.4583 28.9114 34.2346 28.9114 32.7306C28.9114 31.2266 30.1351 30.0029 31.6391 30.0029V28.298C31.6391 27.7331 32.0971 27.275 32.662 27.275C33.2269 27.275 33.685 27.7331 33.685 28.298V30.0029H35.39C35.9549 30.0029 36.4129 30.4607 36.4129 31.0256C36.4129 31.5908 35.9549 32.0486 35.39 32.0486H31.6391C31.263 32.0486 30.9573 32.3545 30.9573 32.7306C30.9573 33.1067 31.263 33.4127 31.6391 33.4127H31.6391ZM29.5932 18.0688C29.5932 17.5047 30.0523 17.0459 30.6162 17.0459H34.7079C35.272 17.0459 35.7309 17.5047 35.7309 18.0688V19.0918H29.5932L29.5932 18.0688ZM44.2553 19.0918H37.7767V18.0688C37.7767 16.3765 36.3999 15 34.7079 15H30.6162C28.9241 15 27.5476 16.3765 27.5476 18.0688V19.0918H21.0691C19.3768 19.0918 18.0002 20.4683 18.0002 22.1603C18.0002 23.7373 19.1958 25.0395 20.7279 25.2099V42.6188C20.7279 44.3109 22.1047 45.6877 23.7967 45.6877H29.4171L25.2561 48.6001C24.7932 48.9242 24.6806 49.5622 25.0047 50.0248C25.3242 50.4812 25.9722 50.5962 26.4292 50.2764L31.6391 46.6294V49.4383C31.6391 50.0032 32.0971 50.4612 32.662 50.4612C33.2269 50.4612 33.685 50.0032 33.685 49.4383V46.6294L38.8949 50.2764C39.3519 50.5962 40.0001 50.4815 40.3196 50.0248C40.6435 49.5622 40.5309 48.9242 40.068 48.6001L35.9073 45.6877H41.5273C43.2196 45.6877 44.5962 44.3108 44.5962 42.6188V25.2099C46.1283 25.0395 47.3238 23.7373 47.3238 22.1603C47.3238 20.4683 45.9473 19.0918 44.2553 19.0918Z" fill="#D10263"/>
</svg>
