<svg width="12" height="15" viewBox="0 0 12 15" fill="none" xmlns="http://www.w3.org/2000/svg">
<path fill-rule="evenodd" clip-rule="evenodd" d="M4.58936 12.3986C4.58931 12.4023 4.58907 12.406 4.58907 12.4096C4.58907 13.3318 5.33617 14.0794 6.25779 14.0794C7.17941 14.0794 7.92653 13.3318 7.92653 12.4096C7.92653 12.406 7.92629 12.4023 7.92624 12.3986H4.58936Z" fill="#D9D9D9"/>
<path fill-rule="evenodd" clip-rule="evenodd" d="M11.5891 10.3115L10.0862 8.10468C10.0862 7.42915 10.0862 5.77849 10.0862 5.35148C10.0862 3.49474 8.76343 1.94703 7.0085 1.59825V0.750435C7.00847 0.336002 6.67237 0 6.25775 0C5.84313 0 5.50702 0.336002 5.50702 0.750435V1.59828C3.7521 1.94709 2.42928 3.4948 2.42928 5.35151C2.42928 6.07838 2.42928 7.68341 2.42928 8.10471L0.926449 10.3115C0.768147 10.5439 0.751402 10.8448 0.882937 11.0934C1.01447 11.3419 1.27269 11.4974 1.55401 11.4974H10.9615C11.2428 11.4974 11.501 11.3419 11.6325 11.0934C11.7641 10.8448 11.7473 10.5439 11.589 10.3115L11.5891 10.3115Z" fill="#D9D9D9"/>
</svg>
