<svg width="15" height="17" viewBox="0 0 15 17" fill="none" xmlns="http://www.w3.org/2000/svg">
<path fill-rule="evenodd" clip-rule="evenodd" d="M14.0645 2.98002H0.654753C0.293152 2.98002 -9.99974e-06 3.27309 -9.99974e-06 3.6346C-9.99974e-06 3.9961 0.293152 4.28916 0.654753 4.28916H14.0645C14.4261 4.28916 14.7192 3.9961 14.7192 3.6346C14.7192 3.2731 14.4261 2.98002 14.0645 2.98002Z" fill="#FB3636"/>
<path fill-rule="evenodd" clip-rule="evenodd" d="M12.5745 2.98002C12.2128 2.98002 11.9197 3.27318 11.9197 3.63479V14.0646C11.9197 14.5251 11.545 14.8998 11.0845 14.8998H3.63471C3.17417 14.8998 2.79952 14.5251 2.79952 14.0646V3.63479C2.79952 3.27319 2.50636 2.98002 2.14476 2.98002C1.78316 2.98002 1.48999 3.27318 1.48999 3.63479V14.0646C1.48999 15.2472 2.45209 16.2093 3.63474 16.2093H11.0846C12.2672 16.2093 13.2293 15.2472 13.2293 14.0646V3.63479C13.2293 3.27319 12.9361 2.98002 12.5745 2.98002Z" fill="#FB3636"/>
<path fill-rule="evenodd" clip-rule="evenodd" d="M8.85156 0H5.8676C4.68342 0 3.71998 0.96204 3.71998 2.1446V3.63448C3.71998 3.99606 4.01355 4.2892 4.37563 4.2892C4.73774 4.2892 5.03129 3.99606 5.03129 3.63448V2.1446C5.03129 1.68409 5.40647 1.30947 5.8676 1.30947H8.85153C9.3127 1.30947 9.68787 1.68412 9.68787 2.1446V3.63448C9.68787 3.99606 9.98138 4.2892 10.3435 4.2892C10.7056 4.2892 10.9992 3.99606 10.9992 3.63448V2.1446C10.9992 0.96207 10.0358 0 8.85158 0H8.85156Z" fill="#FB3636"/>
<path fill-rule="evenodd" clip-rule="evenodd" d="M5.87455 6.70004C5.51304 6.70004 5.21996 6.99368 5.21996 7.35592V11.8334C5.21996 12.1956 5.51304 12.4892 5.87455 12.4892C6.23603 12.4892 6.5291 12.1956 6.5291 11.8334V7.35592C6.52915 6.99369 6.23606 6.70004 5.87455 6.70004Z" fill="#FB3636"/>
<path fill-rule="evenodd" clip-rule="evenodd" d="M8.84969 6.70004C8.48536 6.70004 8.19007 6.99368 8.19007 7.35592V11.8334C8.19007 12.1956 8.48535 12.4892 8.84969 12.4892C9.21401 12.4892 9.5093 12.1956 9.5093 11.8334V7.35592C9.5093 6.99369 9.21402 6.70004 8.84969 6.70004Z" fill="#FB3636"/>
</svg>
